# xmcd CD database file
#
# Track frame offsets:
#	150
#	12421
#	25350
#	39923
#	59817
#	79929
#	100286
#	118307
#	135964
#	155758
#	175597
#
# Disc length: 2575 seconds
#
# Revision: 2
# Processed by: cddbd v1.5.1PL0 Copyright (c) Steve Scherf et al.
# Submitted via: CDex 1.51
#
DISCID=900a0d0b
DTITLE=Fagner e Zeca Baleiro - Raimundo Fagner e Zeca Baleiro
DYEAR=2004
DGENRE=MPB
TTITLE0=Canhoteiro-Fagner e Zeca Baleiro
TTITLE1=Balada de agosto-Fagner e Zeca Baleiro
TTITLE2=Um real de amor-Fagner e Zeca Baleiro
TTITLE3=Palavras e silencios-Fagner e Zeca Baleiro
TTITLE4=Tres irmaos-Fagner e Zeca Baleiro
TTITLE5=Dezembros-Fagner e Zeca Baleiro
TTITLE6=Hotel a beira-mar-Fagner e Zeca Baleiro
TTITLE7=Azulejo-Fagner e Zeca Baleiro
TTITLE8=Serenata sem estrelas-Fagner e Zeca Baleiro
TTITLE9=Daqui pra la de la pra ca-Fagner e Zeca Baleiro
TTITLE10=Cantor de bolero-Fagner e Zeca Baleiro
EXTD=YEAR: 2004
EXTT0=
EXTT1=
EXTT2=
EXTT3=
EXTT4=
EXTT5=
EXTT6=
EXTT7=
EXTT8=
EXTT9=
EXTT10=
PLAYORDER=
